SplineFontDB: 3.0
FontName: Asabina-Industrial
FullName: Asabina Industrial
FamilyName: Asabina Industrial
Weight: Regular
Copyright: Copyright (c) 2017, Asabina GmbH <type.industrial@asabina.de>
UComments: "A decorative type used in the wordmark for Asabina Gmbh. The type intents to look industrial and resemble some attributes one may find in typefaces associated with sci-fi productions."
FontLog: "2017-9-16: Starting a prototype in FontForge (http://fontforge.org) based on some characters designed in Inkscape"
Version: 0.0.1
ItalicAngle: 0
UnderlinePosition: -202
UnderlineWidth: 101
Ascent: 1416
Descent: 608
InvalidEm: 0
LayerCount: 2
Layer: 0 0 "Back" 1
Layer: 1 0 "Fore" 0
XUID: [1021 1019 -1955934214 2614676]
FSType: 0
OS2Version: 0
OS2_WeightWidthSlopeOnly: 0
OS2_UseTypoMetrics: 1
CreationTime: 1505574909
ModificationTime: 1505682640
PfmFamily: 17
TTFWeight: 400
TTFWidth: 5
LineGap: 182
VLineGap: 0
OS2TypoAscent: 0
OS2TypoAOffset: 1
OS2TypoDescent: 0
OS2TypoDOffset: 1
OS2TypoLinegap: 182
OS2WinAscent: 0
OS2WinAOffset: 1
OS2WinDescent: 0
OS2WinDOffset: 1
HheadAscent: 0
HheadAOffset: 1
HheadDescent: 0
HheadDOffset: 1
OS2Vendor: 'PfEd'
MarkAttachClasses: 1
DEI: 91125
LangName: 1033
Encoding: ISO8859-1
UnicodeInterp: none
NameList: AGL For New Fonts
DisplaySize: -48
AntiAlias: 1
FitToEm: 0
WinInfo: 0 16 16
BeginPrivate: 0
EndPrivate
Grid
2022 2428 m 0
 2022 -1620 l 1024
  Named: "2022"
0 2625 m 0
 0 -1423 l 1024
  Named: "2"
-2024 -606 m 0
 4048 -606 l 1024
  Named: "s3"
-2024 -404 m 0
 4048 -404 l 1024
  Named: "s2"
-2024 -202 m 0
 4048 -202 l 1024
  Named: "s1"
-2024 1414 m 0
 4048 1414 l 1024
  Named: "n7"
-2024 1212 m 0
 4048 1212 l 1024
  Named: "n6"
-2024 1010 m 0
 4048 1010 l 1024
  Named: "n5"
-2024 808 m 0
 4048 808 l 1024
  Named: "n4"
-2023.890625 606 m 0
 4048.109375 606 l 1024
  Named: "n3"
-2024 404 m 0
 4048 404 l 1024
  Named: "n2"
-2024 202 m 0
 4048 202 l 1024
  Named: "n1"
204 2630.86816406 m 0
 204 -1417.13183594 l 1024
  Named: "204"

StartChar: a
Encoding: 97 97 0
Width: 1414
VWidth: 0
Flags: W
HStem: 0 404<505 909> 606 404<505 909>
LayerCount: 2
Fore
SplineSet
505 404 m 1
 635 404 779 404 909 404 c 1
 909 606 l 1
 774 606 640 606 505 606 c 1
 505 404 l 1
101 0 m 1
 101 337 101 673 101 1010 c 1
 370 1010 640 1010 909 1010 c 1
 909 1212 l 1
 1313 1010 l 1
 1313 0 l 1
 909 0 505 0 101 0 c 1
EndSplineSet
EndChar

StartChar: s
Encoding: 115 115 1
Width: 1414
VWidth: 0
Flags: W
HStem: 0 404<101 909> 606 404<101 191.224 505 909>
LayerCount: 2
Fore
SplineSet
101 0 m 25
 101 404 l 17
 370 404 640 404 909 404 c 9
 909 606 l 25
 101 606 l 25
 101 1010 l 17
 228 1072 360 1138 505 1212 c 9
 505 1010 l 17
 774 1010 1044 1010 1313 1010 c 9
 1313 0 l 25
 101 0 l 25
EndSplineSet
EndChar

StartChar: b
Encoding: 98 98 2
Width: 1414
VWidth: 0
Flags: W
HStem: 0 404<505 909> 606 404<505 909> 1394 20G<101 505>
VStem: 101 404<404 606 1010 1414>
LayerCount: 2
Fore
SplineSet
505 606 m 25
 505 404 l 25
 909 404 l 25
 909 606 l 25
 505 606 l 25
101 1414 m 25
 505 1414 l 25
 505 1010 l 25
 1313 1010 l 25
 1313 0 l 25
 101 0 l 25
 101 1414 l 25
EndSplineSet
EndChar

StartChar: i
Encoding: 105 105 3
Width: 606
VWidth: 0
Flags: W
HStem: 0 21G<101 505> 990 20G<101 505>
VStem: 101 404<0 1010>
LayerCount: 2
Fore
SplineSet
101 0 m 25
 101 1010 l 25
 505 1010 l 25
 505 0 l 25
 101 0 l 25
EndSplineSet
EndChar

StartChar: n
Encoding: 110 110 4
Width: 1414
VWidth: 0
Flags: W
HStem: 0 21G<101 505 909 1313> 606 404<505 909>
VStem: 101 404<0 606> 909 404<0 606>
LayerCount: 2
Fore
SplineSet
101 0 m 25
 101 1010 l 25
 1313 1010 l 25
 1313 0 l 25
 909 0 l 25
 909 606 l 25
 505 606 l 25
 505 0 l 25
 101 0 l 25
EndSplineSet
EndChar

StartChar: q
Encoding: 113 113 5
Width: 1414
VWidth: 0
Flags: W
HStem: -404 21G<909 949> 0 404<505 909> 606 404<505 909>
VStem: 909 404<-202 0 404 606>
LayerCount: 2
Fore
SplineSet
505 404 m 25
 909 404 l 25
 909 606 l 17
 774 606 640 606 505 606 c 9
 505 404 l 25
101 0 m 1
 101 1010 l 25
 1313 1010 l 1
 1313 -202 l 1
 909 -404 l 1
 909 0 l 1
 101 0 l 1
EndSplineSet
EndChar

StartChar: c
Encoding: 99 99 6
Width: 1414
VWidth: 0
Flags: W
HStem: 0 404<505 1313> 606 404<505 1313>
LayerCount: 2
Fore
SplineSet
101 0 m 25
 101 1010 l 25
 1313 1010 l 25
 1313 606 l 25
 505 606 l 25
 505 404 l 25
 1313 404 l 25
 1313 0 l 25
 101 0 l 25
EndSplineSet
EndChar

StartChar: d
Encoding: 100 100 7
Width: 1414
VWidth: 0
Flags: W
HStem: 0 404<505 909> 606 404<505 909> 1394 20G<909 1313>
VStem: 909 404<404 606 1010 1414>
LayerCount: 2
Fore
SplineSet
505 606 m 9
 505 404 l 25
 909 404 l 25
 909 606 l 17
 774 606 640 606 505 606 c 9
101 0 m 25
 101 1010 l 25
 909 1010 l 25
 909 1414 l 25
 1313 1414 l 25
 1313 0 l 25
 101 0 l 25
EndSplineSet
EndChar

StartChar: e
Encoding: 101 101 8
Width: 1414
VWidth: 0
Flags: W
HStem: 0 404<505 909> 606 404<505 909>
LayerCount: 2
Fore
SplineSet
505 606 m 25
 505 404 l 17
 640 404 774 404 909 404 c 9
 909 606 l 25
 505 606 l 25
101 0 m 25
 101 1010 l 25
 1313 1010 l 25
 1313 0 l 25
 505 0 l 25
 505 -202 l 25
 101 0 l 25
EndSplineSet
EndChar

StartChar: f
Encoding: 102 102 9
Width: 1414
VWidth: 0
Flags: W
HStem: -404 21G<465 505> 0 404<505 909> 606 404<505 1313>
VStem: 101 404<-202 0 404 606>
LayerCount: 2
Fore
SplineSet
101 1010 m 25
 1313 1010 l 25
 1313 606 l 25
 505 606 l 25
 505 404 l 25
 909 404 l 25
 909 0 l 25
 505 0 l 25
 505 -404 l 25
 101 -202 l 25
 101 1010 l 25
EndSplineSet
EndChar

StartChar: g
Encoding: 103 103 10
Width: 1414
VWidth: 0
Flags: HWO
HStem: -606 404<101 505 909 1313> 606 404<505 909>
VStem: 101 1212<-606 -202 0 404 606 1010>
LayerCount: 2
Fore
SplineSet
505 404 m 25
 909 404 l 25
 909 606 l 17
 774 606 640 606 505 606 c 9
 505 404 l 25
1313 -606 m 1
 606 -606 l 25
 606 -202 l 25
 909 -202 l 25
 909 0 l 25
 101 0 l 1
 101 1010 l 1
 505 1010 909 1010 1313 1010 c 1
 1313 -606 l 1
EndSplineSet
EndChar

StartChar: h
Encoding: 104 104 11
Width: 1414
VWidth: 0
Flags: W
HStem: 0 21G<101 505 909 1313> 606 404<505 909> 1394 20G<101 505>
VStem: 101 404<0 606 1010 1414> 909 404<0 606>
LayerCount: 2
Fore
SplineSet
101 0 m 25
 101 1414 l 25
 505 1414 l 25
 505 1010 l 25
 1313 1010 l 25
 1313 0 l 25
 909 0 l 25
 909 606 l 25
 505 606 l 25
 505 0 l 25
 101 0 l 25
EndSplineSet
EndChar

StartChar: j
Encoding: 106 106 12
Width: 606
VWidth: 0
Flags: W
HStem: -404 21G<101 141> 990 20G<101 505>
VStem: 101 404<-202 1010>
LayerCount: 2
Fore
SplineSet
101 1010 m 25
 505 1010 l 25
 505 -202 l 25
 101 -404 l 25
 101 1010 l 25
EndSplineSet
EndChar

StartChar: k
Encoding: 107 107 13
Width: 1414
VWidth: 0
Flags: W
HStem: 0 21G<101 505 707 1313> 606 404<505 707 1111 1313> 1394 20G<101 505>
VStem: 101 404<0 606 1010 1414> 707 606<0 404>
LayerCount: 2
Fore
SplineSet
101 0 m 25
 101 1414 l 25
 505 1414 l 25
 505 1010 l 25
 1313 1010 l 25
 1313 606 l 25
 1111 606 l 25
 1111 404 l 25
 1313 404 l 25
 1313 0 l 25
 707 0 l 25
 707 606 l 25
 505 606 l 25
 505 0 l 25
 101 0 l 25
EndSplineSet
EndChar

StartChar: l
Encoding: 108 108 14
Width: 606
VWidth: 0
Flags: W
HStem: 0 21G<101 505> 1394 20G<101 505>
VStem: 101 404<0 1414>
LayerCount: 2
Fore
SplineSet
101 0 m 25
 101 1414 l 25
 505 1414 l 25
 505 0 l 25
 101 0 l 25
EndSplineSet
EndChar

StartChar: m
Encoding: 109 109 15
Width: 1818
VWidth: 0
Flags: W
HStem: 0 21G<101 505 707 1111 1313 1717> 606 404<505 707 1111 1313>
VStem: 101 404<0 606> 707 404<0 606> 1313 404<0 606>
CounterMasks: 1 38
LayerCount: 2
Fore
SplineSet
101 0 m 25
 101 1010 l 25
 1717 1010 l 25
 1717 0 l 25
 1313 0 l 25
 1313 606 l 25
 1111 606 l 25
 1111 0 l 25
 707 0 l 25
 707 606 l 25
 505 606 l 25
 505 0 l 25
 101 0 l 25
EndSplineSet
EndChar

StartChar: o
Encoding: 111 111 16
Width: 1414
VWidth: 0
Flags: W
HStem: 0 404<505 909> 606 404<505 909>
LayerCount: 2
Fore
SplineSet
505 404 m 25
 909 404 l 25
 909 606 l 17
 774 606 640 606 505 606 c 9
 505 404 l 25
101 0 m 25
 101 1010 l 25
 1313 1010 l 25
 1313 0 l 25
 101 0 l 25
EndSplineSet
EndChar

StartChar: p
Encoding: 112 112 17
Width: 1414
VWidth: 0
Flags: W
HStem: -404 21G<101 505> 0 404<505 909> 606 404<505 909>
VStem: 101 404<-404 0 404 606>
LayerCount: 2
Fore
SplineSet
505 404 m 25
 909 404 l 25
 909 606 l 17
 774 606 640 606 505 606 c 9
 505 404 l 25
101 -404 m 1
 101 1010 l 25
 1313 1010 l 25
 1313 0 l 17
 505 0 l 1
 505 -404 l 1
 101 -404 l 1
EndSplineSet
EndChar

StartChar: r
Encoding: 114 114 18
Width: 1413
VWidth: 0
Flags: W
HStem: 0 21G<101 505> 606 404<505 1313>
VStem: 101 404<0 606>
LayerCount: 2
Fore
SplineSet
101 0 m 25
 101 1010 l 25
 1313 1010 l 25
 1313 606 l 25
 505 606 l 25
 505 0 l 25
 101 0 l 25
EndSplineSet
EndChar

StartChar: t
Encoding: 116 116 19
Width: 1414
VWidth: 0
Flags: W
HStem: 0 404<505 1313> 606 404<505 909> 1394 20G<465 505>
VStem: 101 404<404 606 1010 1212>
LayerCount: 2
Fore
SplineSet
101 0 m 17
 101 401 101 811 101 1212 c 9
 505 1414 l 25
 505 1010 l 25
 909 1010 l 25
 909 606 l 25
 505 606 l 25
 505 404 l 25
 1313 404 l 25
 1313 0 l 25
 101 0 l 17
EndSplineSet
EndChar

StartChar: u
Encoding: 117 117 20
Width: 1414
VWidth: 0
Flags: W
HStem: 0 404<505 909> 990 20G<101 505 909 1313>
VStem: 101 404<404 1010> 909 404<404 1010>
LayerCount: 2
Fore
SplineSet
101 0 m 25
 101 1010 l 25
 505 1010 l 25
 505 404 l 25
 909 404 l 25
 909 1010 l 25
 1313 1010 l 25
 1313 -202 l 25
 909 0 l 25
 101 0 l 25
EndSplineSet
EndChar

StartChar: v
Encoding: 118 118 21
Width: 1414
VWidth: 0
Flags: W
HStem: 0 404<505 909> 990 20G<101 505 909 1313>
VStem: 101 404<404 1010> 909 404<404 1010>
LayerCount: 2
Fore
SplineSet
101 0 m 25
 101 1010 l 25
 505 1010 l 25
 505 404 l 25
 909 404 l 25
 909 1010 l 25
 1313 1010 l 25
 1313 0 l 25
 101 0 l 25
EndSplineSet
EndChar

StartChar: w
Encoding: 119 119 22
Width: 1818
VWidth: 0
Flags: W
HStem: 0 404<505 707 1111 1313> 990 20G<101 505 707 1111 1313 1717>
VStem: 101 404<404 1010> 707 404<404 1010> 1313 404<404 1010>
CounterMasks: 1 38
LayerCount: 2
Fore
SplineSet
101 0 m 25
 101 1010 l 25
 505 1010 l 25
 505 404 l 25
 707 404 l 25
 707 1010 l 25
 1111 1010 l 25
 1111 404 l 25
 1313 404 l 25
 1313 1010 l 25
 1717 1010 l 25
 1717 0 l 25
 101 0 l 25
EndSplineSet
EndChar

StartChar: x
Encoding: 120 120 23
Width: 1414
VWidth: 0
Flags: W
HStem: 0 404<101 505 909 1313> 606 404<101 505 909 1313>
LayerCount: 2
Fore
SplineSet
101 0 m 25
 101 404 l 25
 505 404 l 25
 505 606 l 25
 101 606 l 25
 101 1010 l 25
 1313 1010 l 25
 1313 606 l 25
 909 606 l 25
 909 404 l 25
 1313 404 l 25
 1313 0 l 25
 101 0 l 25
EndSplineSet
EndChar

StartChar: y
Encoding: 121 121 24
Width: 1414
VWidth: 0
Flags: W
HStem: -606 404<505 909> 0 404<505 909> 990 20G<101 505 909 1313>
VStem: 101 404<404 1010> 909 404<-202 0 404 1010>
LayerCount: 2
Fore
SplineSet
101 0 m 25
 101 1010 l 25
 505 1010 l 25
 505 404 l 25
 909 404 l 25
 909 1010 l 25
 1313 1010 l 25
 1313 -606 l 25
 505 -606 l 25
 505 -202 l 25
 909 -202 l 25
 909 0 l 25
 101 0 l 25
EndSplineSet
EndChar

StartChar: z
Encoding: 122 122 25
Width: 1414
VWidth: 0
Flags: W
HStem: 0 404<909 1313> 606 404<101 505>
LayerCount: 2
Fore
SplineSet
1313 1010 m 25
 1313 606 l 1
 909 404 l 1
 1313 404 l 1
 1313 0 l 25
 101 0 l 25
 101 404 l 25
 505 606 l 25
 101 606 l 25
 101 1010 l 25
 1313 1010 l 25
EndSplineSet
EndChar

